# xmcd
#
# Track frame offsets: 
#        182
#        17780
#        37387
#        57652
#        79147
#        98000
#        117025
#        136787
#        158472
#        179790
#
# Disc length: 2702 seconds
#
# Revision: 1
# Processed by: cddbd v1.5.2PL0 Copyright (c) Steve Scherf et al.
# Submitted via: ExactAudioCopy v1.0b3
#
DISCID=820a8c0a
DTITLE=Perfect Gentlemen (PG) - Perfect Gentlemen
DYEAR=1993
DGENRE=R&B
TTITLE0=I Need You (Show Me Love)
TTITLE1=Don't Forget To Call
TTITLE2=Work It Out
TTITLE3=I Don't Wanna Be In Love
TTITLE4=Good, Good Feelin'
TTITLE5=Don't Worry 'Bout A Thing
TTITLE6=Searchin'
TTITLE7=I Wantcha
TTITLE8=Let Me Into Your Heart
TTITLE9=How Soon We Forget
EXTD=
EXTT0=
EXTT1=
EXTT2=
EXTT3=
EXTT4=
EXTT5=
EXTT6=
EXTT7=
EXTT8=
EXTT9=
PLAYORDER=
